<mxfile host="app.diagrams.net" modified="2022-08-13T13:08:50.618Z" agent="5.0 (Windows NT 10.0; Win64; x64) AppleWebKit/537.36 (KHTML, like Gecko) Chrome/104.0.5112.81 Safari/537.36 Edg/104.0.1293.54" etag="dRLpf_g4jfalUPrDF3zU" version="20.2.3" type="github">
  <diagram id="lz73NLW8AhsDK_igFE9y" name="Page-1">
    <mxGraphModel dx="1422" dy="754" grid="1" gridSize="10" guides="1" tooltips="1" connect="1" arrows="1" fold="1" page="1" pageScale="1" pageWidth="827" pageHeight="1169" math="0" shadow="0">
      <root>
        <mxCell id="0" />
        <mxCell id="1" parent="0" />
        <mxCell id="Euw4dMIdzzAuD8WyLnfl-28" value="" style="group" parent="1" vertex="1" connectable="0">
          <mxGeometry x="80" y="445" width="140" height="70" as="geometry" />
        </mxCell>
        <mxCell id="Euw4dMIdzzAuD8WyLnfl-10" value="&lt;font style=&quot;font-size: 9px;&quot;&gt;DPDK port 0&lt;/font&gt;" style="text;html=1;align=center;verticalAlign=middle;resizable=0;points=[];autosize=1;strokeColor=none;fillColor=none;rotation=-90;" parent="Euw4dMIdzzAuD8WyLnfl-28" vertex="1">
          <mxGeometry x="90" y="20" width="70" height="30" as="geometry" />
        </mxCell>
        <mxCell id="Euw4dMIdzzAuD8WyLnfl-12" value="&lt;font style=&quot;font-size: 9px;&quot;&gt;DPDK port 1&lt;/font&gt;" style="text;html=1;align=center;verticalAlign=middle;resizable=0;points=[];autosize=1;strokeColor=none;fillColor=none;rotation=-90;" parent="Euw4dMIdzzAuD8WyLnfl-28" vertex="1">
          <mxGeometry x="-20" y="20" width="70" height="30" as="geometry" />
        </mxCell>
        <mxCell id="Euw4dMIdzzAuD8WyLnfl-2" value="BNG-MASTER" style="shape=process;whiteSpace=wrap;html=1;backgroundOutline=1;fillColor=none;container=0;" parent="Euw4dMIdzzAuD8WyLnfl-28" vertex="1">
          <mxGeometry x="9" y="5" width="122" height="60" as="geometry" />
        </mxCell>
        <mxCell id="Euw4dMIdzzAuD8WyLnfl-39" style="edgeStyle=orthogonalEdgeStyle;rounded=0;orthogonalLoop=1;jettySize=auto;html=1;exitX=1;exitY=0.25;exitDx=0;exitDy=0;entryX=0.75;entryY=0;entryDx=0;entryDy=0;fontSize=9;endArrow=none;endFill=0;fillColor=#ffe6cc;strokeColor=#d79b00;" parent="Euw4dMIdzzAuD8WyLnfl-28" source="Euw4dMIdzzAuD8WyLnfl-2" target="Euw4dMIdzzAuD8WyLnfl-2" edge="1">
          <mxGeometry relative="1" as="geometry">
            <Array as="points">
              <mxPoint x="190" y="20" />
              <mxPoint x="190" y="-25" />
              <mxPoint x="101" y="-25" />
            </Array>
          </mxGeometry>
        </mxCell>
        <mxCell id="Euw4dMIdzzAuD8WyLnfl-46" value="10.10.128.31/24&lt;br&gt;vlan 128" style="edgeLabel;html=1;align=center;verticalAlign=middle;resizable=0;points=[];fontSize=9;labelBackgroundColor=none;" parent="Euw4dMIdzzAuD8WyLnfl-39" vertex="1" connectable="0">
          <mxGeometry x="-0.5891" relative="1" as="geometry">
            <mxPoint x="-9" y="1" as="offset" />
          </mxGeometry>
        </mxCell>
        <mxCell id="Euw4dMIdzzAuD8WyLnfl-50" value="MNGM" style="text;html=1;align=center;verticalAlign=middle;resizable=0;points=[];autosize=1;strokeColor=none;fillColor=none;fontSize=9;" parent="Euw4dMIdzzAuD8WyLnfl-28" vertex="1">
          <mxGeometry x="70" y="5" width="50" height="20" as="geometry" />
        </mxCell>
        <mxCell id="Euw4dMIdzzAuD8WyLnfl-5" style="edgeStyle=orthogonalEdgeStyle;rounded=0;orthogonalLoop=1;jettySize=auto;html=1;entryX=0.25;entryY=1;entryDx=0;entryDy=0;endArrow=none;endFill=0;fillColor=#dae8fc;strokeColor=#6c8ebf;exitX=1;exitY=0.75;exitDx=0;exitDy=0;" parent="1" source="Euw4dMIdzzAuD8WyLnfl-2" target="Euw4dMIdzzAuD8WyLnfl-4" edge="1">
          <mxGeometry relative="1" as="geometry">
            <Array as="points">
              <mxPoint x="420" y="495" />
              <mxPoint x="420" y="350" />
            </Array>
          </mxGeometry>
        </mxCell>
        <mxCell id="Euw4dMIdzzAuD8WyLnfl-7" value="&lt;font style=&quot;font-size: 9px;&quot;&gt;185.163.244.4/28&lt;br&gt;vlan untagged&lt;br&gt;&lt;/font&gt;" style="edgeLabel;html=1;align=center;verticalAlign=middle;resizable=0;points=[];labelBackgroundColor=none;" parent="Euw4dMIdzzAuD8WyLnfl-5" vertex="1" connectable="0">
          <mxGeometry x="-0.7217" y="2" relative="1" as="geometry">
            <mxPoint x="-4" y="4" as="offset" />
          </mxGeometry>
        </mxCell>
        <mxCell id="Euw4dMIdzzAuD8WyLnfl-6" style="edgeStyle=orthogonalEdgeStyle;rounded=0;orthogonalLoop=1;jettySize=auto;html=1;exitX=0;exitY=0.75;exitDx=0;exitDy=0;entryX=0.75;entryY=1;entryDx=0;entryDy=0;endArrow=none;endFill=0;fillColor=#dae8fc;strokeColor=#6c8ebf;" parent="1" source="Euw4dMIdzzAuD8WyLnfl-3" target="Euw4dMIdzzAuD8WyLnfl-4" edge="1">
          <mxGeometry relative="1" as="geometry">
            <Array as="points">
              <mxPoint x="420" y="495" />
              <mxPoint x="420" y="350" />
            </Array>
          </mxGeometry>
        </mxCell>
        <mxCell id="Euw4dMIdzzAuD8WyLnfl-8" value="&lt;font style=&quot;font-size: 9px;&quot;&gt;185.163.244.8/28&lt;br&gt;vlan untagged&lt;br&gt;&lt;/font&gt;" style="edgeLabel;html=1;align=center;verticalAlign=middle;resizable=0;points=[];labelBackgroundColor=none;" parent="Euw4dMIdzzAuD8WyLnfl-6" vertex="1" connectable="0">
          <mxGeometry x="-0.728" y="-1" relative="1" as="geometry">
            <mxPoint x="3" y="3" as="offset" />
          </mxGeometry>
        </mxCell>
        <mxCell id="Euw4dMIdzzAuD8WyLnfl-9" value="&lt;font style=&quot;font-size: 9px;&quot;&gt;185.163.244.1/28&lt;/font&gt;" style="edgeLabel;html=1;align=center;verticalAlign=middle;resizable=0;points=[];" parent="Euw4dMIdzzAuD8WyLnfl-6" vertex="1" connectable="0">
          <mxGeometry x="0.648" y="1" relative="1" as="geometry">
            <mxPoint x="1" y="-27" as="offset" />
          </mxGeometry>
        </mxCell>
        <mxCell id="Euw4dMIdzzAuD8WyLnfl-4" value="CORE" style="shape=process;whiteSpace=wrap;html=1;backgroundOutline=1;fillColor=none;" parent="1" vertex="1">
          <mxGeometry x="360" y="290" width="120" height="60" as="geometry" />
        </mxCell>
        <mxCell id="Euw4dMIdzzAuD8WyLnfl-17" style="edgeStyle=orthogonalEdgeStyle;rounded=0;orthogonalLoop=1;jettySize=auto;html=1;fontSize=9;endArrow=none;endFill=0;" parent="1" source="Euw4dMIdzzAuD8WyLnfl-16" target="Euw4dMIdzzAuD8WyLnfl-4" edge="1">
          <mxGeometry relative="1" as="geometry" />
        </mxCell>
        <mxCell id="Euw4dMIdzzAuD8WyLnfl-16" value="INTERNET" style="ellipse;shape=cloud;whiteSpace=wrap;html=1;fontSize=9;" parent="1" vertex="1">
          <mxGeometry x="360" y="170" width="120" height="80" as="geometry" />
        </mxCell>
        <mxCell id="Euw4dMIdzzAuD8WyLnfl-22" value="VRRP&lt;br&gt;GROUP 1&lt;br&gt;PEERS: 185.163.244.4 &amp;amp; 185.163.244.8&lt;br&gt;VIP 185.163.244.14/28" style="ellipse;whiteSpace=wrap;html=1;dashed=1;fontSize=9;fillColor=none;" parent="1" vertex="1">
          <mxGeometry x="320" y="464" width="200" height="64" as="geometry" />
        </mxCell>
        <mxCell id="Euw4dMIdzzAuD8WyLnfl-23" value="IP ROUTE&amp;nbsp;&amp;nbsp;95.169.205.0/24 via 185.163.244.14" style="whiteSpace=wrap;html=1;rounded=1;arcSize=50;align=center;verticalAlign=middle;strokeWidth=1;autosize=1;spacing=4;treeFolding=1;treeMoving=1;newEdgeStyle={&quot;edgeStyle&quot;:&quot;entityRelationEdgeStyle&quot;,&quot;startArrow&quot;:&quot;none&quot;,&quot;endArrow&quot;:&quot;none&quot;,&quot;segment&quot;:10,&quot;curved&quot;:1};dashed=1;fontSize=9;fillColor=none;" parent="1" vertex="1">
          <mxGeometry x="540" y="260" width="240" height="30" as="geometry" />
        </mxCell>
        <mxCell id="Euw4dMIdzzAuD8WyLnfl-24" value="" style="edgeStyle=entityRelationEdgeStyle;startArrow=none;endArrow=none;segment=10;curved=1;rounded=0;fontSize=9;" parent="1" target="Euw4dMIdzzAuD8WyLnfl-23" edge="1">
          <mxGeometry relative="1" as="geometry">
            <mxPoint x="480" y="320" as="sourcePoint" />
          </mxGeometry>
        </mxCell>
        <mxCell id="Euw4dMIdzzAuD8WyLnfl-34" style="edgeStyle=orthogonalEdgeStyle;rounded=0;orthogonalLoop=1;jettySize=auto;html=1;entryX=1;entryY=0.25;entryDx=0;entryDy=0;fontSize=9;endArrow=none;endFill=0;fillColor=#d5e8d4;strokeColor=#82b366;" parent="1" source="Euw4dMIdzzAuD8WyLnfl-25" target="Euw4dMIdzzAuD8WyLnfl-3" edge="1">
          <mxGeometry relative="1" as="geometry">
            <Array as="points">
              <mxPoint x="414" y="660" />
              <mxPoint x="790" y="660" />
              <mxPoint x="790" y="480" />
              <mxPoint x="751" y="480" />
            </Array>
          </mxGeometry>
        </mxCell>
        <mxCell id="Euw4dMIdzzAuD8WyLnfl-35" style="edgeStyle=orthogonalEdgeStyle;rounded=0;orthogonalLoop=1;jettySize=auto;html=1;entryX=0;entryY=0.5;entryDx=0;entryDy=0;fontSize=9;endArrow=none;endFill=0;fillColor=#d5e8d4;strokeColor=#82b366;" parent="1" source="Euw4dMIdzzAuD8WyLnfl-25" target="Euw4dMIdzzAuD8WyLnfl-2" edge="1">
          <mxGeometry relative="1" as="geometry">
            <Array as="points">
              <mxPoint x="414" y="660" />
              <mxPoint x="50" y="660" />
              <mxPoint x="50" y="480" />
            </Array>
          </mxGeometry>
        </mxCell>
        <mxCell id="Euw4dMIdzzAuD8WyLnfl-25" value="L2SUBS&lt;br&gt;VLAN RANGE 301 -310" style="ellipse;shape=cloud;whiteSpace=wrap;html=1;fontSize=9;fillColor=none;" parent="1" vertex="1">
          <mxGeometry x="330" y="715" width="183" height="80" as="geometry" />
        </mxCell>
        <mxCell id="Euw4dMIdzzAuD8WyLnfl-29" value="" style="group" parent="1" vertex="1" connectable="0">
          <mxGeometry x="620" y="445" width="140" height="70" as="geometry" />
        </mxCell>
        <mxCell id="Euw4dMIdzzAuD8WyLnfl-13" value="&lt;font style=&quot;font-size: 9px;&quot;&gt;DPDK port 1&lt;/font&gt;" style="text;html=1;align=center;verticalAlign=middle;resizable=0;points=[];autosize=1;strokeColor=none;fillColor=none;rotation=-90;" parent="Euw4dMIdzzAuD8WyLnfl-29" vertex="1">
          <mxGeometry x="90" y="20" width="70" height="30" as="geometry" />
        </mxCell>
        <mxCell id="Euw4dMIdzzAuD8WyLnfl-30" value="" style="group" parent="Euw4dMIdzzAuD8WyLnfl-29" vertex="1" connectable="0">
          <mxGeometry x="-1.7763568394002505e-15" width="131" height="70" as="geometry" />
        </mxCell>
        <mxCell id="Euw4dMIdzzAuD8WyLnfl-11" value="&lt;font style=&quot;font-size: 9px;&quot;&gt;DPDK port 0&lt;/font&gt;" style="text;html=1;align=center;verticalAlign=middle;resizable=0;points=[];autosize=1;strokeColor=none;fillColor=none;rotation=-90;" parent="Euw4dMIdzzAuD8WyLnfl-30" vertex="1">
          <mxGeometry x="-20" y="20" width="70" height="30" as="geometry" />
        </mxCell>
        <mxCell id="Euw4dMIdzzAuD8WyLnfl-3" value="BNG-SLAVE" style="shape=process;whiteSpace=wrap;html=1;backgroundOutline=1;fillColor=none;" parent="Euw4dMIdzzAuD8WyLnfl-30" vertex="1">
          <mxGeometry x="9.000000000000002" y="5" width="122" height="60" as="geometry" />
        </mxCell>
        <mxCell id="Euw4dMIdzzAuD8WyLnfl-38" style="edgeStyle=orthogonalEdgeStyle;rounded=0;orthogonalLoop=1;jettySize=auto;html=1;exitX=0;exitY=0.25;exitDx=0;exitDy=0;entryX=0.25;entryY=0;entryDx=0;entryDy=0;fontSize=9;endArrow=none;endFill=0;fillColor=#ffe6cc;strokeColor=#d79b00;" parent="Euw4dMIdzzAuD8WyLnfl-30" source="Euw4dMIdzzAuD8WyLnfl-3" target="Euw4dMIdzzAuD8WyLnfl-3" edge="1">
          <mxGeometry relative="1" as="geometry">
            <Array as="points">
              <mxPoint x="-50" y="20" />
              <mxPoint x="-50" y="-25" />
              <mxPoint x="39" y="-25" />
            </Array>
          </mxGeometry>
        </mxCell>
        <mxCell id="Euw4dMIdzzAuD8WyLnfl-44" value="10.10.128.32/24&lt;br&gt;vlan 128" style="edgeLabel;html=1;align=center;verticalAlign=middle;resizable=0;points=[];fontSize=9;" parent="Euw4dMIdzzAuD8WyLnfl-38" vertex="1" connectable="0">
          <mxGeometry x="-0.2375" y="-1" relative="1" as="geometry">
            <mxPoint x="49" y="-18" as="offset" />
          </mxGeometry>
        </mxCell>
        <mxCell id="Euw4dMIdzzAuD8WyLnfl-45" value="10.10.128.33/24&lt;br&gt;vlan 128" style="edgeLabel;html=1;align=center;verticalAlign=middle;resizable=0;points=[];fontSize=9;labelBackgroundColor=none;" parent="Euw4dMIdzzAuD8WyLnfl-38" vertex="1" connectable="0">
          <mxGeometry x="-0.3048" y="2" relative="1" as="geometry">
            <mxPoint x="23" y="20" as="offset" />
          </mxGeometry>
        </mxCell>
        <mxCell id="Euw4dMIdzzAuD8WyLnfl-51" value="MNGM" style="text;html=1;align=center;verticalAlign=middle;resizable=0;points=[];autosize=1;strokeColor=none;fillColor=none;fontSize=9;" parent="Euw4dMIdzzAuD8WyLnfl-30" vertex="1">
          <mxGeometry x="20" y="5" width="50" height="20" as="geometry" />
        </mxCell>
        <mxCell id="Euw4dMIdzzAuD8WyLnfl-36" value="SUBSC VRRP&lt;br&gt;GROUP 2&lt;br&gt;PEERS: 10.10.128.31 &amp;amp; 10.10.128.33&lt;br&gt;VIP 100.101.0.1/32&lt;br&gt;95.169.205.1/25 secondary" style="ellipse;whiteSpace=wrap;html=1;dashed=1;fontSize=9;fillColor=none;" parent="1" vertex="1">
          <mxGeometry x="327" y="610" width="186" height="90" as="geometry" />
        </mxCell>
        <mxCell id="Euw4dMIdzzAuD8WyLnfl-40" value="RADIUSD" style="rounded=0;whiteSpace=wrap;html=1;fontSize=9;fillColor=none;" parent="1" vertex="1">
          <mxGeometry x="90" y="270" width="120" height="30" as="geometry" />
        </mxCell>
        <mxCell id="Euw4dMIdzzAuD8WyLnfl-41" value="DHCPD" style="rounded=0;whiteSpace=wrap;html=1;fontSize=9;fillColor=none;" parent="1" vertex="1">
          <mxGeometry x="90" y="340" width="120" height="30" as="geometry" />
        </mxCell>
        <mxCell id="Euw4dMIdzzAuD8WyLnfl-42" style="edgeStyle=orthogonalEdgeStyle;rounded=0;orthogonalLoop=1;jettySize=auto;html=1;entryX=1;entryY=0.75;entryDx=0;entryDy=0;fontSize=9;endArrow=none;endFill=0;fillColor=#ffe6cc;strokeColor=#d79b00;exitX=0.75;exitY=0;exitDx=0;exitDy=0;" parent="1" source="Euw4dMIdzzAuD8WyLnfl-2" target="Euw4dMIdzzAuD8WyLnfl-41" edge="1">
          <mxGeometry relative="1" as="geometry">
            <mxPoint x="270" y="450" as="sourcePoint" />
            <Array as="points">
              <mxPoint x="181" y="420" />
              <mxPoint x="270" y="420" />
              <mxPoint x="270" y="363" />
              <mxPoint x="210" y="363" />
            </Array>
          </mxGeometry>
        </mxCell>
        <mxCell id="Euw4dMIdzzAuD8WyLnfl-43" style="edgeStyle=orthogonalEdgeStyle;rounded=0;orthogonalLoop=1;jettySize=auto;html=1;entryX=1;entryY=0.672;entryDx=0;entryDy=0;entryPerimeter=0;fontSize=9;endArrow=none;endFill=0;exitX=0.75;exitY=0;exitDx=0;exitDy=0;fillColor=#ffe6cc;strokeColor=#d79b00;" parent="1" source="Euw4dMIdzzAuD8WyLnfl-2" target="Euw4dMIdzzAuD8WyLnfl-40" edge="1">
          <mxGeometry relative="1" as="geometry">
            <Array as="points">
              <mxPoint x="181" y="420" />
              <mxPoint x="270" y="420" />
              <mxPoint x="270" y="290" />
            </Array>
          </mxGeometry>
        </mxCell>
        <mxCell id="Euw4dMIdzzAuD8WyLnfl-47" value="10.10.128.30/24&lt;br&gt;vlan 128" style="edgeLabel;html=1;align=center;verticalAlign=middle;resizable=0;points=[];fontSize=9;labelBackgroundColor=none;" parent="Euw4dMIdzzAuD8WyLnfl-43" vertex="1" connectable="0">
          <mxGeometry x="-0.8401" y="-3" relative="1" as="geometry">
            <mxPoint x="36" y="-5" as="offset" />
          </mxGeometry>
        </mxCell>
        <mxCell id="Euw4dMIdzzAuD8WyLnfl-49" style="edgeStyle=orthogonalEdgeStyle;rounded=0;orthogonalLoop=1;jettySize=auto;html=1;exitX=0.25;exitY=0;exitDx=0;exitDy=0;entryX=1;entryY=0.75;entryDx=0;entryDy=0;fontSize=9;endArrow=none;endFill=0;fillColor=#ffe6cc;strokeColor=#d79b00;jumpStyle=arc;" parent="1" source="Euw4dMIdzzAuD8WyLnfl-3" target="Euw4dMIdzzAuD8WyLnfl-41" edge="1">
          <mxGeometry relative="1" as="geometry">
            <Array as="points">
              <mxPoint x="660" y="420" />
              <mxPoint x="270" y="420" />
              <mxPoint x="270" y="363" />
              <mxPoint x="210" y="363" />
            </Array>
          </mxGeometry>
        </mxCell>
        <mxCell id="Euw4dMIdzzAuD8WyLnfl-55" style="edgeStyle=orthogonalEdgeStyle;rounded=0;jumpStyle=arc;orthogonalLoop=1;jettySize=auto;html=1;exitX=1;exitY=0.75;exitDx=0;exitDy=0;fontSize=9;endArrow=none;endFill=0;fillColor=#ffe6cc;strokeColor=#d79b00;" parent="1" source="Euw4dMIdzzAuD8WyLnfl-54" edge="1">
          <mxGeometry relative="1" as="geometry">
            <mxPoint x="180" y="450" as="targetPoint" />
            <Array as="points">
              <mxPoint x="270" y="328" />
              <mxPoint x="270" y="420" />
              <mxPoint x="180" y="420" />
            </Array>
          </mxGeometry>
        </mxCell>
        <mxCell id="Euw4dMIdzzAuD8WyLnfl-54" value="CAPTIVE PORTAL" style="rounded=0;whiteSpace=wrap;html=1;fontSize=9;fillColor=none;" parent="1" vertex="1">
          <mxGeometry x="90" y="305" width="120" height="30" as="geometry" />
        </mxCell>
        <mxCell id="Euw4dMIdzzAuD8WyLnfl-56" value="&lt;ul&gt;&lt;li&gt;100.101.0.1/32 SUBSC GW FOR CGNAT&lt;/li&gt;&lt;li&gt;95.169.205.1/25 SUBSC GW FOR REAL IPs&lt;/li&gt;&lt;/ul&gt;" style="whiteSpace=wrap;html=1;rounded=1;arcSize=50;align=left;verticalAlign=middle;strokeWidth=1;autosize=1;spacing=4;treeFolding=1;treeMoving=1;newEdgeStyle={&quot;edgeStyle&quot;:&quot;entityRelationEdgeStyle&quot;,&quot;startArrow&quot;:&quot;none&quot;,&quot;endArrow&quot;:&quot;none&quot;,&quot;segment&quot;:10,&quot;curved&quot;:1};labelBackgroundColor=none;fontSize=9;fillColor=none;dashed=1;" parent="1" vertex="1">
          <mxGeometry x="535" y="690" width="245" height="37" as="geometry" />
        </mxCell>
        <mxCell id="Euw4dMIdzzAuD8WyLnfl-57" value="" style="edgeStyle=entityRelationEdgeStyle;startArrow=none;endArrow=none;segment=10;curved=1;rounded=0;fontSize=9;jumpStyle=arc;" parent="1" source="Euw4dMIdzzAuD8WyLnfl-36" target="Euw4dMIdzzAuD8WyLnfl-56" edge="1">
          <mxGeometry relative="1" as="geometry">
            <mxPoint x="540" y="640" as="sourcePoint" />
          </mxGeometry>
        </mxCell>
        <mxCell id="CsN-_KlLTzdjhCpbdbn0-1" value="Can I use vlan 128 on port 0 for peers communication?&lt;br&gt;" style="whiteSpace=wrap;html=1;shape=mxgraph.basic.cloud_callout;labelBackgroundColor=none;fontSize=9;fillColor=#f8cecc;strokeColor=#b85450;" vertex="1" parent="1">
          <mxGeometry x="460" y="530" width="200" height="100" as="geometry" />
        </mxCell>
      </root>
    </mxGraphModel>
  </diagram>
</mxfile>
